<svg xmlns="http://www.w3.org/2000/svg" viewBox="0 0 81.78 80"><g id="Camada_2" data-name="Camada 2"><g id="Camada_1-2" data-name="Camada 1"><path d="M40.9,19.49a20.51,20.51,0,1,0,0,41,20.51,20.51,0,1,0,0-41Zm0,33.84A13.33,13.33,0,1,1,54.53,40,13.51,13.51,0,0,1,40.9,53.33ZM67.61,18.65a4.89,4.89,0,1,1-4.89-4.78A4.82,4.82,0,0,1,67.61,18.65Zm13.88,4.86c-.31-6.41-1.81-12.09-6.6-16.77S64.3.6,57.76.28C51-.09,30.77-.09,24,.28,17.49.58,11.69,2.05,6.89,6.73S.62,17.08.29,23.49c-.39,6.6-.39,26.4,0,33,.31,6.41,1.8,12.09,6.6,16.77S17.47,79.4,24,79.72c6.75.37,27,.37,33.74,0,6.54-.3,12.34-1.77,17.13-6.46s6.27-10.36,6.6-16.77C81.87,49.89,81.87,30.11,81.49,23.51ZM72.77,63.58A13.66,13.66,0,0,1,65,71.19c-5.38,2.08-18.15,1.6-24.1,1.6s-18.74.47-24.1-1.6A13.66,13.66,0,0,1,9,63.58C6.89,58.32,7.38,45.82,7.38,40S6.91,21.67,9,16.42A13.63,13.63,0,0,1,16.8,8.81C22.18,6.73,35,7.21,40.9,7.21S59.63,6.74,65,8.81a13.68,13.68,0,0,1,7.77,7.61C74.9,21.68,74.41,34.18,74.41,40S74.9,58.33,72.77,63.58Z" style="fill:#fff"/></g></g></svg>