<svg xmlns="http://www.w3.org/2000/svg" viewBox="0 0 106.67 80"><g id="Camada_2" data-name="Camada 2"><g id="Camada_1-2" data-name="Camada 1"><path d="M104.65,26.42a1.25,1.25,0,0,1,2,1V70a10,10,0,0,1-10,10H10A10,10,0,0,1,0,70V27.42a1.24,1.24,0,0,1,2-1c4.67,3.62,10.85,8.23,32.11,23.66,4.39,3.21,11.81,10,19.2,9.92s15-6.83,19.23-9.92C93.81,34.67,100,30,104.65,26.42ZM53.33,53.33c4.84.09,11.79-6.08,15.3-8.62C96.27,24.65,98.37,22.9,104.75,17.9A5,5,0,0,0,106.67,14V10a10,10,0,0,0-10-10H10A10,10,0,0,0,0,10v4A5,5,0,0,0,1.92,17.9c6.37,5,8.48,6.75,36.12,26.81C41.54,47.25,48.5,53.42,53.33,53.33Z" style="fill:#fff"/></g></g></svg>