<svg xmlns="http://www.w3.org/2000/svg" viewBox="0 0 64 80"><g id="Camada_2" data-name="Camada 2"><g id="Camada_1-2" data-name="Camada 1"><path d="M54.51,9.26A32,32,0,0,0,0,31.68C0,53.6,28.2,78,29.4,79a4,4,0,0,0,5.2,0C36,78,64,53.6,64,31.68A32,32,0,0,0,54.51,9.26ZM32,70.6c-6.68-6.36-24-24-24-38.92a24,24,0,0,1,48,0C56,46.48,38.68,64.24,32,70.6Z" style="fill:#fff"/><path d="M32,16a14,14,0,1,0,9.9,4.1A14,14,0,0,0,32,16Zm4.24,18.24a6,6,0,0,1-9.78-1.94,6,6,0,0,1,1.3-6.54,6,6,0,0,1,3.07-1.64,5.9,5.9,0,0,1,3.47.34,6,6,0,0,1,1.94,9.78Z" style="fill:#fff"/></g></g></svg>