<svg xmlns="http://www.w3.org/2000/svg" viewBox="0 0 77.51 80"><g id="Camada_2" data-name="Camada 2"><g id="Camada_1-2" data-name="Camada 1"><path d="M73.61,35.06V16c0-5.47-11-8-21.31-8a55.15,55.15,0,0,0-9.68.8V8c0-5.48-11-8-21.31-8S0,2.52,0,8V68c0,5.48,11,8,21.31,8a56,56,0,0,0,11-1.08,28.32,28.32,0,0,0,36-3,30.2,30.2,0,0,0,8.9-17.48A30.72,30.72,0,0,0,73.61,35.06Zm-12-11.79a28,28,0,0,0,8.18-2.44v8.84A29.29,29.29,0,0,0,61.56,23.27ZM21.31,16a41.09,41.09,0,0,0,17.43-3.16V20c-.31,1.12-6.12,4-17.43,4S4.18,21.07,3.87,20V12.83A41.16,41.16,0,0,0,21.31,16Zm-.23,24a28.44,28.44,0,0,0-1.71,8c-10.07-.32-15.3-2.92-15.5-4V36.82A41.37,41.37,0,0,0,21.08,40ZM3.87,56V48.82A38.52,38.52,0,0,0,19.37,52,31,31,0,0,0,21,60C9.92,60,4.18,57.06,3.87,56ZM22.78,36H21.31C10,36,4.18,33.07,3.87,32V24.83A41.31,41.31,0,0,0,21.31,28a59.19,59.19,0,0,0,8-.52A30,30,0,0,0,22.78,36ZM52.3,12c11.36,0,17.17,2.92,17.44,4s-6.08,4-17.44,4a54.25,54.25,0,0,1-9.68-.84V12.83A56.16,56.16,0,0,1,52.3,12Zm-31-8C32.54,4,38.36,6.88,38.74,8c-.38,1.08-5.81,3.75-16.23,4h-1.2C10,12,4.18,9.08,3.87,8,4.18,6.92,10,4,21.31,4Zm0,68C10,72,4.18,69.05,3.87,68V60.81A41.16,41.16,0,0,0,21.31,64h1.43a29.87,29.87,0,0,0,5.5,7.56A55.35,55.35,0,0,1,21.31,72Zm27.12,4a24.67,24.67,0,0,1-14-4.38,25.91,25.91,0,0,1-9.28-11.67,26.8,26.8,0,0,1-1.43-15A26.29,26.29,0,0,1,30.62,31.6a25,25,0,0,1,12.9-7.11A24.46,24.46,0,0,1,58.07,26a25.37,25.37,0,0,1,11.3,9.57,26.6,26.6,0,0,1-3.14,32.8A24.8,24.8,0,0,1,48.43,76Z" style="fill:#280e4d"/><path d="M50.37,48v-9.2A5,5,0,0,1,52.78,40a5.16,5.16,0,0,1,1.46,2.31,2,2,0,0,0,.9,1.27,1.9,1.9,0,0,0,1.5.25,2,2,0,0,0,1.24-.92,2.18,2.18,0,0,0,.24-1.56,9.55,9.55,0,0,0-3-4.41,9.07,9.07,0,0,0-4.79-2.07V34a2.06,2.06,0,0,0-.57-1.42,1.91,1.91,0,0,0-2.74,0A2.06,2.06,0,0,0,46.49,34v.83a8.67,8.67,0,0,0-5.36,2.79,9.24,9.24,0,0,0-2.39,5.69,9.42,9.42,0,0,0,.2,1.84,9.6,9.6,0,0,0,2.8,4.57A9.17,9.17,0,0,0,46.49,52v9.23A4.88,4.88,0,0,1,44.08,60a5.16,5.16,0,0,1-1.46-2.31,2.12,2.12,0,0,0-.9-1.28,1.93,1.93,0,0,0-1.5-.24A2,2,0,0,0,39,57.1a2.15,2.15,0,0,0-.24,1.55,9.5,9.5,0,0,0,3,4.41,8.93,8.93,0,0,0,4.79,2V66a2.07,2.07,0,0,0,.57,1.42,1.91,1.91,0,0,0,2.74,0A2.07,2.07,0,0,0,50.37,66v-.88A9,9,0,0,0,55.21,63a9.52,9.52,0,0,0,2.91-4.55,8.33,8.33,0,0,0-2.21-7.62A8.77,8.77,0,0,0,50.37,48Zm-7.75-4a3.24,3.24,0,0,1,0-.88,5,5,0,0,1,1.23-2.85,4.81,4.81,0,0,1,2.64-1.51V47.5a5,5,0,0,1-2.37-1.12,5.16,5.16,0,0,1-1.5-2.2ZM54.24,57.5a5.16,5.16,0,0,1-1.46,2.31A4.88,4.88,0,0,1,50.37,61V52.26A4.7,4.7,0,0,1,53,53.78a5,5,0,0,1,1.22,2.88A3,3,0,0,1,54.24,57.5Z" style="fill:#280e4d"/></g></g></svg>