<svg xmlns="http://www.w3.org/2000/svg" viewBox="0 0 101.81 83"><g id="Camada_2" data-name="Camada 2"><g id="Camada_1-2" data-name="Camada 1"><path d="M31.49,60h0a11.5,11.5,0,1,0,0,23,11.53,11.53,0,0,0,9.55-5.11A11.5,11.5,0,0,0,31.49,60ZM28.06,70.82A3.6,3.6,0,0,1,29,69a3.44,3.44,0,0,1,1.79-1A3.23,3.23,0,0,1,31.5,68,3.51,3.51,0,0,1,35,71.5,3.47,3.47,0,0,1,34,74a3.57,3.57,0,0,1-4.42.44,3.53,3.53,0,0,1-1.29-1.57A3.58,3.58,0,0,1,28.06,70.82Z" style="fill:#fff"/><path d="M81.48,60h0a11.5,11.5,0,1,0,0,23,11.28,11.28,0,0,0,4.39-.88A11.5,11.5,0,0,0,81.48,60ZM78.05,70.82A3.6,3.6,0,0,1,79,69a3.44,3.44,0,0,1,1.79-1,3.14,3.14,0,0,1,.68-.07A3.49,3.49,0,0,1,84,74h0a3.49,3.49,0,0,1-5.7-1.13A3.41,3.41,0,0,1,78.05,70.82Z" style="fill:#fff"/><path d="M44,28h6v6a4,4,0,0,0,1.17,2.83A4,4,0,0,0,58,34V28h6a4,4,0,0,0,0-8H58V14a4,4,0,0,0-6.83-2.83A4,4,0,0,0,50,14v6H44a4,4,0,1,0,0,8Z" style="fill:#fff"/><path d="M101.14,9.73a14,14,0,0,0-7.62-8.51A13.89,13.89,0,0,0,87.81,0H74a4,4,0,0,0-4,4,4,4,0,0,0,4,4H87.82a6.17,6.17,0,0,1,2.44.51,6,6,0,0,1,3.51,6.15L91,39.66A6,6,0,0,1,85,45H34a6,6,0,0,1-6-6V14A14,14,0,0,0,14,0H4A4,4,0,1,0,4,8H14a6,6,0,0,1,6,6V39A14,14,0,0,0,34,53H85a14,14,0,0,0,13.9-12.46l2.78-25A14,14,0,0,0,101.14,9.73Z" style="fill:#fff"/></g></g></svg>