<svg xmlns="http://www.w3.org/2000/svg" viewBox="0 0 80 80"><g id="Camada_2" data-name="Camada 2"><g id="Camada_1-2" data-name="Camada 1"><path d="M40,0C18.29,0,0,18.29,0,40A40.23,40.23,0,0,0,16,71.7V72h.41a38.77,38.77,0,0,0,47.18,0H64v-.3A40.24,40.24,0,0,0,80,40C80,18.29,61.71,0,40,0ZM24.27,67.7h0A12,12,0,0,1,36,58.29H44A12,12,0,0,1,55.68,67.7,30.85,30.85,0,0,1,24.27,67.7Zm38.17-5.14A20,20,0,0,0,44,50.29H36A20,20,0,0,0,17.56,62.56,31.94,31.94,0,0,1,8,40C8,22.65,22.68,8,40,8S72,22.68,72,40A31.94,31.94,0,0,1,62.44,62.56Z" style="fill:#fff"/><path d="M40,16A15.65,15.65,0,0,0,24,32,15.64,15.64,0,0,0,40,48,15.65,15.65,0,0,0,56,32,15.66,15.66,0,0,0,40,16Zm0,24a7.65,7.65,0,0,1-8-8,7.65,7.65,0,0,1,8-8,7.65,7.65,0,0,1,8,8A7.65,7.65,0,0,1,40,40Z" style="fill:#fff"/></g></g></svg>