<svg xmlns="http://www.w3.org/2000/svg" viewBox="0 0 80 80"><g id="Camada_2" data-name="Camada 2"><g id="Camada_1-2" data-name="Camada 1"><path d="M77.8,2.2A7.47,7.47,0,0,0,72.5,0h-15a2.5,2.5,0,1,0,0,5h15A2.49,2.49,0,0,1,75,7.5v15a2.5,2.5,0,1,0,5,0V7.5A7.47,7.47,0,0,0,77.8,2.2Z" style="fill:#fff"/><path d="M2.5,25A2.49,2.49,0,0,0,5,22.5V7.5A2.49,2.49,0,0,1,7.5,5h15a2.5,2.5,0,1,0,0-5H7.5A7.51,7.51,0,0,0,0,7.5v15A2.49,2.49,0,0,0,2.5,25Z" style="fill:#fff"/><path d="M22.5,75H7.5A2.49,2.49,0,0,1,5,72.5v-15a2.5,2.5,0,1,0-5,0v15A7.51,7.51,0,0,0,7.5,80h15a2.5,2.5,0,1,0,0-5Z" style="fill:#fff"/><path d="M77.5,55A2.49,2.49,0,0,0,75,57.5v15A2.49,2.49,0,0,1,72.5,75h-15a2.5,2.5,0,1,0,0,5h15A7.51,7.51,0,0,0,80,72.5v-15A2.49,2.49,0,0,0,77.5,55Z" style="fill:#fff"/><path d="M29.39,35.61A15,15,0,1,0,25,25,15,15,0,0,0,29.39,35.61Z" style="fill:#fff"/><path d="M10,65c0,5,5,5,5,5H65s5,0,5-5S65,45,40,45,10,60,10,65Z" style="fill:#fff"/></g></g></svg>