<svg xmlns="http://www.w3.org/2000/svg" viewBox="0 0 80 80"><g id="Camada_2" data-name="Camada 2"><g id="Camada_1-2" data-name="Camada 1"><path d="M40,16A15.76,15.76,0,0,0,24.26,31.74h8a7.74,7.74,0,0,1,15.48,0c0,2.39-1.93,4.13-4.87,6.5a34.87,34.87,0,0,0-2.76,2.4A13,13,0,0,0,36,49.33V52h8V49.47a5.42,5.42,0,0,1,1.76-3.17c.6-.6,1.36-1.2,2.14-1.84,3.12-2.52,7.83-6.33,7.83-12.72A15.74,15.74,0,0,0,40,16Z" style="fill:#fff"/><rect x="36" y="56" width="8" height="8" style="fill:#fff"/><path d="M40,0A40,40,0,1,0,80,40,40,40,0,0,0,40,0Zm0,72A32,32,0,1,1,72,40,32,32,0,0,1,40,72Z" style="fill:#fff"/></g></g></svg>