<svg xmlns="http://www.w3.org/2000/svg" viewBox="0 0 80 57.89"><g id="Camada_2" data-name="Camada 2"><g id="Camada_1-2" data-name="Camada 1"><path d="M76.92,3.08A10.45,10.45,0,0,0,69.48,0h-59A10.52,10.52,0,0,0,0,10.52V47.37A10.52,10.52,0,0,0,10.52,57.89h59A10.52,10.52,0,0,0,80,47.37V10.52A10.45,10.45,0,0,0,76.92,3.08ZM7.53,7.53a4.23,4.23,0,0,1,3-1.23H14.3a11.52,11.52,0,0,1-8,8V10.52A4.23,4.23,0,0,1,7.53,7.53Zm0,42.83a4.23,4.23,0,0,1-1.23-3V20.75a17.77,17.77,0,0,0,9.5-4.95,17.73,17.73,0,0,0,4.95-9.5H69.48a4.2,4.2,0,0,1,4.22,4.22V37.14A17.83,17.83,0,0,0,59.25,51.59H10.52A4.23,4.23,0,0,1,7.53,50.36Zm64.94,0a4.23,4.23,0,0,1-3,1.23H65.7a11.52,11.52,0,0,1,8-8v3.78A4.23,4.23,0,0,1,72.47,50.36Z" style="fill:#fff"/><path d="M40,14.74a14.21,14.21,0,1,0,14.2,14.2A14.22,14.22,0,0,0,40,14.74Zm0,22.11a7.91,7.91,0,1,1,7.91-7.91A7.92,7.92,0,0,1,40,36.85Z" style="fill:#fff"/></g></g></svg>