<svg xmlns="http://www.w3.org/2000/svg" viewBox="0 0 80 80"><g id="Camada_2" data-name="Camada 2"><g id="Camada_1-2" data-name="Camada 1"><path d="M40,42.66c13.25,0,24-9.57,24-21.33S53.25,0,40,0,16,9.57,16,21.33,26.75,42.66,40,42.66ZM40,5.32c10.32,0,18.72,7.18,18.72,16s-8.4,16-18.72,16-18.72-7.18-18.72-16S29.68,5.32,40,5.32Z" style="fill:#fff"/><path d="M79.91,68.57,78.24,56.9A13.46,13.46,0,0,0,73,48.17a16.58,16.58,0,0,0-10.11-3.36h-1.5a2.66,2.66,0,1,0,0,5.32h1.5a11.27,11.27,0,0,1,6.86,2.25A8.17,8.17,0,0,1,73,57.66l1.67,11.66a3.85,3.85,0,0,1-.19,1.87,4.56,4.56,0,0,1-1.12,1.74,6,6,0,0,1-2,1.28,7,7,0,0,1-2.54.47H11.21a7,7,0,0,1-2.54-.47,6,6,0,0,1-2-1.28,4.56,4.56,0,0,1-1.12-1.74,3.85,3.85,0,0,1-.19-1.87L7,57.66a8.21,8.21,0,0,1,3.23-5.28,11.29,11.29,0,0,1,6.87-2.25h1.5a2.66,2.66,0,1,0,0-5.32h-1.5A16.58,16.58,0,0,0,7,48.17a13.46,13.46,0,0,0-5.25,8.74L.09,68.57A9.24,9.24,0,0,0,.53,73a10,10,0,0,0,2.4,3.75,11.13,11.13,0,0,0,3.79,2.44,12,12,0,0,0,4.49.85H68.79a12.18,12.18,0,0,0,4.49-.84,11.41,11.41,0,0,0,3.79-2.45A10,10,0,0,0,79.47,73,9.37,9.37,0,0,0,79.91,68.57Z" style="fill:#fff"/></g></g></svg>