<svg id="Camada_1" data-name="Camada 1" xmlns="http://www.w3.org/2000/svg" viewBox="0 0 726 698"><path d="M627.77,243.62v251a20.87,20.87,0,0,1-10.23,17.95L399.23,641.81A20.86,20.86,0,0,1,367.74,624L365.62,369.9a20.88,20.88,0,0,1,10.51-18.28L596.55,225.51A20.86,20.86,0,0,1,627.77,243.62Z" style="fill:#068bbc"/><path d="M98.23,243.79V494.51a20.87,20.87,0,0,0,10.31,18L328.75,641.67a20.86,20.86,0,0,0,31.42-18.17l-2.11-253.89a20.88,20.88,0,0,0-10.43-17.89l-218.1-126A20.86,20.86,0,0,0,98.23,243.79Z" style="fill:#280e4d"/><path d="M372.15,56,592.34,182a20.86,20.86,0,0,1,0,36.21l-220.19,126a20.85,20.85,0,0,1-20.8,0l-218.06-126a20.86,20.86,0,0,1,0-36.13l218.06-126A20.88,20.88,0,0,1,372.15,56Z" style="fill:#2a3492"/></svg>