<svg id="Camada_1" data-name="Camada 1" xmlns="http://www.w3.org/2000/svg" viewBox="0 0 1547 698"><path d="M595,245.91V477.84a19.3,19.3,0,0,1-9.45,16.6L383.82,613.93a19.29,19.29,0,0,1-29.11-16.43l-1.95-234.88a19.29,19.29,0,0,1,9.7-16.9L566.19,229.17A19.28,19.28,0,0,1,595,245.91Z" style="fill:#fff"/><path d="M105.62,246.07V477.79a19.28,19.28,0,0,0,9.53,16.63L318.68,613.8a19.28,19.28,0,0,0,29-16.79l-2-234.66a19.25,19.25,0,0,0-9.63-16.53L134.55,229.37A19.29,19.29,0,0,0,105.62,246.07Z" style="fill:#fff"/><path d="M358.79,72.5l203.5,116.43a19.28,19.28,0,0,1,0,33.48L358.79,338.83a19.26,19.26,0,0,1-19.22,0L138,222.37a19.29,19.29,0,0,1,0-33.4L339.57,72.54A19.31,19.31,0,0,1,358.79,72.5Z" style="fill:#fff"/><path d="M730.23,222H823.8v46.79H730.23a46.79,46.79,0,0,0,0,93.57H823.8v46.79H730.23a93.58,93.58,0,0,1,0-187.15Z" style="fill:#fff"/><path d="M982.88,222h46.78v93.58a93.57,93.57,0,0,1-187.14,0V222H889.3v93.58a46.79,46.79,0,0,0,93.58,0Z" style="fill:#fff"/><path d="M1235.52,280.49v.12c0,10.73-5.24,26.39-11.7,35,6.46,8.57,11.7,24.23,11.7,35v.13A58.5,58.5,0,0,1,1177,409.15H1048.38V222H1177A58.51,58.51,0,0,1,1235.52,280.49Zm-58.45,11.7a11.73,11.73,0,0,0,11.72-11.73c0-.31,0-.81-.06-1.12a12.35,12.35,0,0,0-11.94-10.55h-81.63v23.4h81.91Zm0,70.17a11.72,11.72,0,0,0,11.72-11.72c0-.31,0-.81-.06-1.12A12.35,12.35,0,0,0,1176.79,339h-81.63v23.39h81.91Z" style="fill:#fff"/><path d="M1254.23,222h187.15v46.79H1301v23.4h140.36V339H1301v23.39h140.36v46.79H1254.23Z" style="fill:#fff"/><path d="M906.4,453.15h8.85c1.81.07,2.92.54,3.32,1.41a6.19,6.19,0,0,1,.5,2.82v11.07a4.44,4.44,0,0,1-1.4,3.07q-4.23,4.38-12.68,4.38a17.63,17.63,0,0,1-13-5.66,18.85,18.85,0,0,1-5.54-13.66,17.66,17.66,0,0,1,5.64-13.36,18.62,18.62,0,0,1,24.5-1.44,2.84,2.84,0,0,1,1.36,2.24,5.11,5.11,0,0,1-1.16,2.84q-2,2.67-3.57,2.67a6.91,6.91,0,0,1-3.07-1.38,8.93,8.93,0,0,0-5-1.39,9.86,9.86,0,0,0-6.8,2.69,9.11,9.11,0,0,0-3,7.05,10.1,10.1,0,0,0,3,7.4,9.38,9.38,0,0,0,6.84,3,13,13,0,0,0,5-.91v-5.48h-4a4.44,4.44,0,0,1-2.21-.4,1.85,1.85,0,0,1-.85-1.18,8.51,8.51,0,0,1-.21-2.12,8.2,8.2,0,0,1,.23-2.14,1.66,1.66,0,0,1,.83-1.1A5.46,5.46,0,0,1,906.4,453.15Z" style="fill:#fff"/><path d="M944.38,441.13,958,469.2a6.55,6.55,0,0,1,.85,2.57q0,1.82-2.92,3.27a6.64,6.64,0,0,1-2.69.86,2.71,2.71,0,0,1-1.61-.46,3.1,3.1,0,0,1-.91-.95c-.18-.34-.44-.84-.78-1.51l-2.61-5.44H933.36L930.75,473c-.34.67-.6,1.15-.78,1.46a3.74,3.74,0,0,1-.91.93,2.63,2.63,0,0,1-1.61.47,6.59,6.59,0,0,1-2.69-.85q-2.93-1.41-2.92-3.22a6.61,6.61,0,0,1,.86-2.57l13.58-28.12a4.38,4.38,0,0,1,1.69-1.86,4.44,4.44,0,0,1,2.39-.71A4.26,4.26,0,0,1,944.38,441.13Zm-4.07,12.07L937,460.1h6.69Z" style="fill:#fff"/><path d="M1000.78,439.92a4.06,4.06,0,0,1,.48,1.36,15.61,15.61,0,0,1,.07,1.76V471c0,2.31-.63,3.67-1.91,4.07a8.19,8.19,0,0,1-2.41.3,8.43,8.43,0,0,1-2.32-.25,4.23,4.23,0,0,1-1.31-.6,2.31,2.31,0,0,1-.7-1,9.92,9.92,0,0,1-.25-2.62V454q-1.26,1.56-3.67,5c-1.61,2.26-2.64,3.68-3.07,4.25l-.91,1.18a5,5,0,0,1-1.23.91,4.28,4.28,0,0,1-4.18.05,4.72,4.72,0,0,1-1.33-1l-.4-.55c-.67-.84-2-2.62-4-5.36s-3-4.2-3.22-4.4v17a14.79,14.79,0,0,1-.07,1.73,3.51,3.51,0,0,1-.48,1.28c-.5.91-1.81,1.36-3.93,1.36s-3.32-.45-3.82-1.36a3.53,3.53,0,0,1-.48-1.3,16.48,16.48,0,0,1-.07-1.82V442.94a15.1,15.1,0,0,1,.07-1.74,4,4,0,0,1,.48-1.33c.5-.87,1.81-1.31,3.92-1.31a7.33,7.33,0,0,1,2.34.33,3.08,3.08,0,0,1,1.29.68l.3.3,11.42,15q8.55-11.33,11.42-14.95c.57-.9,1.92-1.36,4-1.36S1000.31,439,1000.78,439.92Z" style="fill:#fff"/><path d="M1014.27,466.49h15.49a15.1,15.1,0,0,1,1.74.07,4,4,0,0,1,1.33.48c.91.47,1.36,1.78,1.36,3.93,0,2.34-.62,3.72-1.86,4.12a8.51,8.51,0,0,1-2.62.3h-19.92c-2.35,0-3.73-.63-4.13-1.91a8,8,0,0,1-.3-2.57v-28c0-1.71.32-2.87,1-3.5s1.84-.93,3.62-.93h19.82a14.62,14.62,0,0,1,1.74.08,4,4,0,0,1,1.33.48c.91.47,1.36,1.77,1.36,3.92,0,2.35-.62,3.72-1.86,4.13a8.51,8.51,0,0,1-2.62.3h-15.44v5.08h10a12.48,12.48,0,0,1,1.73.08,4.23,4.23,0,0,1,1.34.47q1.35.7,1.35,3.93c0,2.35-.63,3.72-1.91,4.12a8.08,8.08,0,0,1-2.61.31h-9.86Z" style="fill:#fff"/><path d="M1050.74,470.21a4.84,4.84,0,0,1-1.31-2.89c0-.86.72-2,2.17-3.4a3.81,3.81,0,0,1,2.66-1.21q1.41,0,3.93,2.52a7.7,7.7,0,0,0,2,1.64,4.86,4.86,0,0,0,2.41.77q4.68,0,4.68-3.82a2.25,2.25,0,0,0-1.28-1.94,9.54,9.54,0,0,0-3.2-1.13,29.06,29.06,0,0,1-8.25-3,8.32,8.32,0,0,1-3.19-3.34,11.06,11.06,0,0,1-1.28-5.51,10.58,10.58,0,0,1,3.29-7.73q3.3-3.29,9-3.29a18.34,18.34,0,0,1,5.51.78,10.54,10.54,0,0,1,3.45,1.59l1.26,1a3.93,3.93,0,0,1,1.56,2.47,5.58,5.58,0,0,1-1.21,2.76c-1.14,1.68-2.32,2.52-3.52,2.52a5.18,5.18,0,0,1-2.62-1,6.62,6.62,0,0,1-.58-.5,5.81,5.81,0,0,0-.78-.65,5,5,0,0,0-2.69-.66,4.53,4.53,0,0,0-2.72.78,2.52,2.52,0,0,0-1.08,2.16,2.59,2.59,0,0,0,1.28,2.24,7.93,7.93,0,0,0,3.2,1.16,37.52,37.52,0,0,1,4.18.93,25.57,25.57,0,0,1,4.17,1.54,7.36,7.36,0,0,1,3.2,3.14,11,11,0,0,1,1.28,5.51,12.23,12.23,0,0,1-1.31,5.76,10,10,0,0,1-3.42,3.85,15.62,15.62,0,0,1-8.71,2.67,17.11,17.11,0,0,1-4.47-.58,14.44,14.44,0,0,1-7.15-4.56Z" style="fill:#fff"/><path d="M1079.42,438.46h28a5.64,5.64,0,0,1,2.37.38,1.92,1.92,0,0,1,1,1.18,7.23,7.23,0,0,1,.25,2.12,6.89,6.89,0,0,1-.25,2.08,1.73,1.73,0,0,1-.85,1.08,5.76,5.76,0,0,1-2.57.46h-9.61v25.3a14.37,14.37,0,0,1-.07,1.72,3.92,3.92,0,0,1-.46,1.28,2.1,2.1,0,0,1-1.33,1,8.67,8.67,0,0,1-2.52.3,8.36,8.36,0,0,1-2.49-.3,2.09,2.09,0,0,1-1.3-1,3.9,3.9,0,0,1-.46-1.31A14.79,14.79,0,0,1,1089,471V445.76h-9.66a5.61,5.61,0,0,1-2.37-.38,1.87,1.87,0,0,1-1-1.18,7.23,7.23,0,0,1-.25-2.12A6.89,6.89,0,0,1,1076,440a1.7,1.7,0,0,1,.85-1.08A5.76,5.76,0,0,1,1079.42,438.46Z" style="fill:#fff"/><path d="M1128.07,438.06a18.54,18.54,0,0,1,18.41,18.74,19.15,19.15,0,0,1-5.23,13.58,16.9,16.9,0,0,1-12.88,5.62,17.41,17.41,0,0,1-13-5.54,18.26,18.26,0,0,1-5.36-13.18,20.26,20.26,0,0,1,1.51-7.83,18.06,18.06,0,0,1,4-6.11,19,19,0,0,1,5.79-3.87A16.87,16.87,0,0,1,1128.07,438.06Zm-9.16,19a9.66,9.66,0,0,0,2.9,7.27,8.93,8.93,0,0,0,12.9.07,9.57,9.57,0,0,0,2.87-7.29,9.74,9.74,0,0,0-2.89-7.35,9.17,9.17,0,0,0-6.47-2.76,9,9,0,0,0-6.44,2.79A9.69,9.69,0,0,0,1118.91,457Z" style="fill:#fff"/><path d="M1178,469.15a8,8,0,0,1,.75,2.62q0,1.92-3.11,3.22a6.93,6.93,0,0,1-2.6.7,2.65,2.65,0,0,1-1.61-.47,3.66,3.66,0,0,1-.93-1q-.49-1-3.92-9.11l-1.56.1h-6.34v5.68a14.38,14.38,0,0,1-.08,1.74,4.11,4.11,0,0,1-.47,1.33c-.47.91-1.78,1.36-3.93,1.36-2.35,0-3.72-.62-4.12-1.86a8.11,8.11,0,0,1-.31-2.62V442.94a14.62,14.62,0,0,1,.08-1.74,4,4,0,0,1,.48-1.33c.47-.9,1.78-1.36,3.92-1.36h10.87a14,14,0,0,1,8.6,3.22A11.8,11.8,0,0,1,1177,446a13.21,13.21,0,0,1,1.31,5.94,12.48,12.48,0,0,1-3.77,9.35C1175.3,463,1176.44,465.67,1178,469.15Zm-19.32-12.83h6.44a4.86,4.86,0,0,0,2.92-1.1,3.92,3.92,0,0,0,1.46-3.32,4,4,0,0,0-1.46-3.35,4.89,4.89,0,0,0-3-1.13h-6.34Z" style="fill:#fff"/><path d="M1190.41,466.49h15.49a15.1,15.1,0,0,1,1.74.07,4,4,0,0,1,1.33.48c.91.47,1.36,1.78,1.36,3.93,0,2.34-.62,3.72-1.86,4.12a8.46,8.46,0,0,1-2.62.3h-19.92c-2.35,0-3.72-.63-4.13-1.91a8,8,0,0,1-.3-2.57v-28c0-1.71.32-2.87,1-3.5s1.84-.93,3.62-.93h19.82a14.62,14.62,0,0,1,1.74.08,4,4,0,0,1,1.33.48c.91.47,1.36,1.77,1.36,3.92,0,2.35-.62,3.72-1.86,4.13a8.46,8.46,0,0,1-2.62.3h-15.44v5.08h10a12.48,12.48,0,0,1,1.73.08,4.23,4.23,0,0,1,1.34.47c.9.47,1.36,1.78,1.36,3.93q0,3.52-1.92,4.12a8.08,8.08,0,0,1-2.61.31h-9.86Z" style="fill:#fff"/></svg>