<svg xmlns="http://www.w3.org/2000/svg" viewBox="0 0 157 157"><g id="Camada_2" data-name="Camada 2"><g id="Camada_1-2" data-name="Camada 1"><path d="M157,78.5A78.5,78.5,0,1,1,78.5,0,78.51,78.51,0,0,1,157,78.5Z" style="fill:#ef4423"/><path d="M78.5,13.08C43,13.08,13.08,43,13.08,78.5c0,20.86,10.42,39.76,26.17,51.84v.49h.67a63.4,63.4,0,0,0,77.16,0h.67v-.49c15.75-12.08,26.17-31,26.17-51.84C143.92,43,114,13.08,78.5,13.08ZM52.82,123.81A19.61,19.61,0,0,1,72,108.42H85a19.61,19.61,0,0,1,19.14,15.39,50.48,50.48,0,0,1-51.36,0Zm62.38-8.41A32.76,32.76,0,0,0,85,95.33H72A32.76,32.76,0,0,0,41.8,115.4,52.17,52.17,0,0,1,26.17,78.5c0-28.37,24-52.33,52.33-52.33s52.33,24,52.33,52.33A52.17,52.17,0,0,1,115.2,115.4Z" style="fill:#fff"/><path d="M78.5,39.25c-14.91,0-26.17,11.25-26.17,26.17S63.59,91.58,78.5,91.58s26.17-11.25,26.17-26.16S93.42,39.25,78.5,39.25Zm0,39.25c-7.71,0-13.08-5.38-13.08-13.08S70.79,52.33,78.5,52.33s13.08,5.38,13.08,13.09S86.21,78.5,78.5,78.5Z" style="fill:#fff"/></g></g></svg>