<svg xmlns="http://www.w3.org/2000/svg" viewBox="0 0 108.46 80"><g id="Camada_2" data-name="Camada 2"><g id="Camada_1-2" data-name="Camada 1"><path d="M30.68,68c0,6.58,5.93,12,13.14,12S57,74.58,57,68,51,56,43.82,56,30.68,61.42,30.68,68Zm13.14-4a4,4,0,1,1,0,8,4,4,0,1,1,0-8Z" style="fill:#fff"/><polygon points="78.88 20 65.73 20 65.73 0 56.97 0 56.97 20 43.82 20 61.35 36 78.88 20" style="fill:#fff"/><path d="M97.1,50.12,108.46,12H99.28L88.74,48H34.09L22.6,6a8,8,0,0,0-3.11-4.34A9.24,9.24,0,0,0,14.11,0H4.38a4.63,4.63,0,0,0-3.1,1.17A3.84,3.84,0,0,0,0,4,3.84,3.84,0,0,0,1.28,6.83,4.63,4.63,0,0,0,4.38,8h9.73l11.5,42a8.6,8.6,0,0,0,8.49,6H88.74A8.54,8.54,0,0,0,97.1,50.12Z" style="fill:#fff"/><path d="M70.12,68c0,6.58,5.93,12,13.14,12s13.15-5.42,13.15-12S90.47,56,83.26,56,70.12,61.42,70.12,68Zm13.14-4a4,4,0,1,1-4.38,4A4.14,4.14,0,0,1,83.26,64Z" style="fill:#fff"/></g></g></svg>