<svg xmlns="http://www.w3.org/2000/svg" viewBox="0 0 85.55 80"><g id="Camada_2" data-name="Camada 2"><g id="Camada_1-2" data-name="Camada 1"><path d="M84.16,19.42V0H1.39V19.42H0V72.27A7.74,7.74,0,0,0,7.74,80H77.81a7.74,7.74,0,0,0,7.74-7.73V19.42ZM11.67,11.11,6.48,18V5.92Zm.81,7.39v.92H11.8Zm5.06-7.94c0-.11,0-.21-.06-.29a1.37,1.37,0,0,0-.1-.37l-.12-.23a1.67,1.67,0,0,0-.18-.27l-.14-.23L12.85,5.09H72.7l-4,4a1.14,1.14,0,0,0-.22.29,2.11,2.11,0,0,0-.21.31l-.12.21a1.6,1.6,0,0,0-.09.33,3.14,3.14,0,0,0-.08.38l0,8.83H17.58V10.87ZM79.07,5.92V18l-5.19-6.92Zm-5.32,13.5h-.69V18.5Zm6.71,5.09V72.27a2.65,2.65,0,0,1-2.65,2.64H7.74a2.65,2.65,0,0,1-2.65-2.64V24.51Z" style="fill:#fff"/><path d="M22,35.61a2.5,2.5,0,0,0,1.61-.6v6.38a19.2,19.2,0,0,0,38.39,0V35a2.5,2.5,0,0,0,1.61.6,2.55,2.55,0,0,0,2.55-2.55,6.71,6.71,0,0,0-13.42,0,2.55,2.55,0,0,0,2.55,2.55,2.53,2.53,0,0,0,1.62-.6v6.38a14.11,14.11,0,0,1-28.21,0V35a2.51,2.51,0,0,0,1.62.6,2.55,2.55,0,0,0,2.54-2.55,6.71,6.71,0,0,0-13.41,0A2.55,2.55,0,0,0,22,35.61Z" style="fill:#fff"/></g></g></svg>