<svg xmlns="http://www.w3.org/2000/svg" viewBox="0 0 112.86 110"><g id="Camada_2" data-name="Camada 2"><g id="Camada_1-2" data-name="Camada 1"><path d="M86.86,20V0H1.43V20H0V74.58a8,8,0,0,0,8,8H80.31a8,8,0,0,0,8-8V20ZM12,11.46,6.69,18.61V6.1Zm.84,7.64V20h-.7Zm5.22-8.2c0-.11,0-.22-.06-.3a1.42,1.42,0,0,0-.1-.38L17.81,10a1.69,1.69,0,0,0-.19-.28l-.14-.23L13.26,5.25H75L70.92,9.36a1.65,1.65,0,0,0-.23.3,2.2,2.2,0,0,0-.21.32l-.12.22a1.15,1.15,0,0,0-.1.34c0,.14-.06.26-.08.39l0,9.11h-52V11.22ZM81.6,6.11v12.5l-5.36-7.15ZM76.11,20H75.4V19.1ZM83,25.3V74.58a2.74,2.74,0,0,1-2.73,2.73H8a2.74,2.74,0,0,1-2.73-2.73V25.3Z" style="fill:#fff"/><path d="M22.67,36.75a2.65,2.65,0,0,0,1.67-.61v6.57a19.81,19.81,0,1,0,39.61,0V36.14a2.62,2.62,0,0,0,4.3-2,6.93,6.93,0,0,0-13.85,0,2.62,2.62,0,0,0,4.3,2v6.57a14.56,14.56,0,1,1-29.11,0V36.13a2.6,2.6,0,0,0,1.67.62,2.63,2.63,0,0,0,2.63-2.63,6.93,6.93,0,0,0-13.85,0A2.63,2.63,0,0,0,22.67,36.75Z" style="fill:#fff"/><circle cx="84.23" cy="81.37" r="28.63" style="fill:#068bbc"/><path d="M90.1,82.71q0,4.55-1.56,6.75a6.45,6.45,0,0,1-9.67.06q-1.56-2.17-1.62-6.46V79.6q0-4.48,1.55-6.67a5.57,5.57,0,0,1,4.87-2.18,5.6,5.6,0,0,1,4.83,2.11q1.56,2.1,1.6,6.49Zm-2.59-3.54a9.5,9.5,0,0,0-.92-4.78,3.57,3.57,0,0,0-5.82,0,9.34,9.34,0,0,0-.94,4.6v4.14a9.65,9.65,0,0,0,1,4.88,3.17,3.17,0,0,0,2.9,1.57,3.12,3.12,0,0,0,2.84-1.48,9.2,9.2,0,0,0,1-4.67Z" style="fill:#fff"/></g></g></svg>