<svg xmlns="http://www.w3.org/2000/svg" viewBox="0 0 81.78 80"><g id="Camada_2" data-name="Camada 2"><g id="Camada_1-2" data-name="Camada 1"><path d="M73,0H8.76A8.67,8.67,0,0,0,0,8.57V71.43A8.67,8.67,0,0,0,8.76,80H73a8.67,8.67,0,0,0,8.76-8.57V8.57A8.67,8.67,0,0,0,73,0ZM64.09,28.36c0,.5,0,1,0,1.52,0,15.48-12,33.32-34.07,33.32A34.48,34.48,0,0,1,11.68,58a27.69,27.69,0,0,0,2.89.14,24.38,24.38,0,0,0,14.86-5A12,12,0,0,1,18.24,45a13.17,13.17,0,0,0,5.4-.21,11.77,11.77,0,0,1-9.58-11.5v-.14a12.18,12.18,0,0,0,5.4,1.48,11.83,11.83,0,0,1-3.92-4.22,11.51,11.51,0,0,1-1.41-5.53,11.36,11.36,0,0,1,1.62-5.91A34.25,34.25,0,0,0,40.43,31.18,11.79,11.79,0,0,1,52.12,16.79a12.06,12.06,0,0,1,8.74,3.69,23.75,23.75,0,0,0,7.59-2.82,11.71,11.71,0,0,1-5.25,6.45,24.4,24.4,0,0,0,6.9-1.82A24.93,24.93,0,0,1,64.09,28.36Z" style="fill:#fff"/></g></g></svg>